<?xml version="1.0" encoding="utf-8"?>
<!-- Generator: Adobe Illustrator 16.0.0, SVG Export Plug-In . SVG Version: 6.00 Build 0)  -->
<!DOCTYPE svg PUBLIC "-//W3C//DTD SVG 1.1//EN" "http://www.w3.org/Graphics/SVG/1.1/DTD/svg11.dtd">
<svg version="1.1" id="图层_1" xmlns="http://www.w3.org/2000/svg" xmlns:xlink="http://www.w3.org/1999/xlink" x="0px" y="0px"
	 width="64px" height="64px" viewBox="0 0 64 64" enable-background="new 0 0 64 64" xml:space="preserve">
<g>
	<path fill-rule="evenodd" clip-rule="evenodd" fill="#2B2C2C" d="M711.565-1036.729l-83.181-33.792c-3.899-1.3-7.798-1.3-11.697,0
		l-84.479,33.792c-5.199,1.3-9.099,7.798-9.099,12.997v98.776c0,5.199,2.6,10.397,7.799,12.997l84.479,45.489
		c1.3,2.6,3.899,2.6,6.499,2.6c2.599,0,5.198,0,6.498-1.3l84.48-45.489c5.198-2.599,7.798-7.798,7.798-12.997v-100.076
		C720.663-1028.932,716.764-1035.43,711.565-1036.729L711.565-1036.729z M620.587-1061.424h1.3h1.3l80.581,32.492l-20.796,11.697
		l-80.581-37.691L620.587-1061.424L620.587-1061.424z M566-1039.329l80.58,40.291l-24.693,12.997l-81.881-42.89L566-1039.329
		L566-1039.329z M536.106-919.757c-1.3-1.3-2.599-2.6-2.599-3.899v-98.777l84.479,44.189v101.376L536.106-919.757L536.106-919.757z
		 M711.565-923.656c0,1.299-1.3,3.899-2.6,3.899l-81.881,44.189v-102.676l25.994-12.997v32.492c0,3.899,3.899,6.499,7.798,3.899
		l25.994-12.997c1.3-1.299,2.6-2.599,2.6-3.899v-38.991l22.095-11.697V-923.656L711.565-923.656z"/>
</g>
<g>
	<path fill-rule="evenodd" clip-rule="evenodd" fill="#040000" d="M407.109-944.568c19.889,0,36.012,16.123,36.012,36.012
		s-16.123,36.011-36.012,36.011s-36.012-16.123-36.012-36.011C371.094-928.445,387.221-944.568,407.109-944.568L407.109-944.568
		L407.109-944.568z M404.925-938.502c-3.648,0-6.633,2.984-6.633,6.633v25.935c0,3.649,2.984,6.633,6.633,6.633l0,0
		c0.233,0,0.463-0.012,0.688-0.035c0.458,0.101,0.933,0.155,1.422,0.155h17.731c3.614,0,6.575-2.957,6.575-6.575l0,0
		c0-3.614-2.957-6.575-6.575-6.575h-13.208v-19.542C411.563-935.514,408.574-938.499,404.925-938.502L404.925-938.502
		L404.925-938.502L404.925-938.502L404.925-938.502z M331.11-926.977l-63.878-45.303v29.211l63.878,45.295V-926.977L331.11-926.977
		L331.11-926.977z M346.892-937.736l40.722-29.367l-84.847-60.171l-40.722,29.367L346.892-937.736L346.892-937.736L346.892-937.736z
		 M342.932-877.111l-83.805-59.425v-53.902l83.805,59.409V-877.111L342.932-877.111L342.932-877.111z M306.236-1061.393
		l38.576,0.781l80.456,57.042l-38.576-0.766L306.236-1061.393L306.236-1061.393L306.236-1061.393z M441.706-998.179
		c0.043-1.01-0.272-1.924-0.983-2.682c-0.236-0.691-0.609-1.34-1.235-1.792l-91.282-64.713c-0.606-0.443-1.329-0.669-2.087-0.692
		l-51.847-1.029c-1.647-0.031-3.12,1.002-3.634,2.564c-0.509,1.555,0.047,3.265,1.384,4.209l23.689,16.791l-11.309,8.18
		c-0.408,0.105-0.809,0.288-1.182,0.54l-49.783,35.887c-0.976,0.707-1.543,1.85-1.531,3.066v0.05l-0.252,0.121v63.066l1.585,3.043
		l91.278,64.717l0.151-0.074c0.163,0.125,0.307,0.253,0.493,0.361c0.548,0.272,1.135,0.412,1.726,0.412
		c0.762,0,1.508-0.229,2.153-0.7l22.398-15.882c-1.465-2.021-2.755-4.162-3.878-6.412l-16.939,12.011v-53.895l83.786-59.417v47.491
		c1.321,1.049,2.588,2.176,3.797,3.385c1.324,1.325,2.553,2.72,3.688,4.181v-62.292
		C441.893-997.869,441.729-997.997,441.706-998.179L441.706-998.179L441.706-998.179z"/>
</g>
<g>
	<path fill-rule="evenodd" clip-rule="evenodd" fill="#040000" d="M1144.567-873.031c-2.027,0-4.048-0.826-5.508-2.462
		c-19.179-21.479-50.199-21.686-50.841-21.686c-0.021,0-0.021,0-0.044,0c-4.048,0-7.352-3.266-7.381-7.314
		c-0.029-4.07,3.229-7.388,7.292-7.433c1.534-0.081,38.173-0.044,61.975,26.611c2.714,3.038,2.448,7.698-0.59,10.412
		C1148.07-873.65,1146.314-873.031,1144.567-873.031L1144.567-873.031z M1194.014-873.046c-1.791,0-3.591-0.649-5.014-1.969
		c-2.986-2.765-3.171-7.433-0.398-10.419c24.65-26.618,60.544-26.588,61.96-26.53c4.077,0.044,7.344,3.377,7.3,7.447
		c-0.045,4.048-3.333,7.3-7.374,7.3c-0.021,0-0.036,0-0.059,0l0,0c-0.612,0-31.006,0.199-51.01,21.803
		C1197.974-873.835,1195.99-873.046,1194.014-873.046L1194.014-873.046z M1181.015-910.547h-23.367
		c-0.744,0-1.467-0.111-2.152-0.325c-24.944-3.2-46.144-17.674-59.807-40.886c-15.86-26.958-19.495-61.886-9.032-86.919
		c1.128-2.691,3.738-4.468,6.658-4.527l2.219-0.022c14.047,0,27.164,2.655,39.103,7.904c8.627-15.771,18.478-27.739,29.339-35.643
		c0.575-0.501,1.231-0.921,1.961-1.231l0,0c2.278-0.988,4.926-0.774,7.013,0.583c0.361,0.236,0.7,0.501,1.01,0.796
		c10.891,7.993,20.469,19.783,29.14,35.887c12.174-5.5,25.594-8.288,40.009-8.288l2.257,0.022c2.92,0.059,5.53,1.836,6.658,4.527
		c10.463,25.041,6.835,59.969-9.04,86.926c-13.663,23.197-34.854,37.678-59.792,40.886
		C1182.489-910.666,1181.767-910.547,1181.015-910.547L1181.015-910.547z M1158.96-925.294h20.742
		c0.154-0.03,0.317-0.052,0.479-0.074c26.662-2.964,41.955-20.063,50.088-33.874c12.454-21.169,16.229-48.834,9.799-69.2
		c-13.419,0.435-25.719,3.724-36.594,9.8c-1.777,0.987-3.879,1.194-5.804,0.604c-1.932-0.604-3.531-1.983-4.424-3.805
		c-7.477-15.292-15.491-26.544-24.384-34.213c-8.9,7.654-17.092,18.987-24.406,33.778c-0.893,1.799-2.471,3.156-4.388,3.761
		c-1.917,0.612-3.981,0.405-5.751-0.553c-10.647-5.788-22.659-8.937-35.718-9.364c-6.43,20.366-2.654,48.031,9.8,69.193
		c8.133,13.811,23.418,30.902,50.073,33.874C1158.636-925.346,1158.798-925.324,1158.96-925.294L1158.96-925.294z M1169.275-866.609
		c-4.069,0-7.373-3.296-7.373-7.374v-43.938c0-4.078,3.304-7.374,7.373-7.374c4.07,0,7.374,3.296,7.374,7.374v43.938
		C1176.643-869.905,1173.346-866.609,1169.275-866.609L1169.275-866.609z"/>
</g>
<g>
	<path fill-rule="evenodd" clip-rule="evenodd" fill="#2B2C2C" d="M1531.962-966.118l-106.864-99.917l-106.863,99.624
		c-2.09,1.949-2.207,5.227-0.253,7.315c1.952,2.086,5.233,2.205,7.322,0.251l99.786-93.021l99.792,93.305
		c1.001,0.936,2.271,1.398,3.54,1.398c1.381,0,2.763-0.548,3.782-1.64C1534.159-960.891,1534.052-964.166,1531.962-966.118
		L1531.962-966.118 M1531.962-966.118L1531.962-966.118z M1499.352-964.066c-2.86,0-5.181,2.319-5.181,5.175v79.36h-41.446v-55.207
		h-55.261v55.207h-41.445v-79.36c0-2.856-2.317-5.175-5.18-5.175c-2.864,0-5.183,2.319-5.183,5.175v89.711h62.17v-55.207h34.538
		v55.207h62.167v-89.711C1504.532-961.747,1502.211-964.066,1499.352-964.066L1499.352-964.066 M1499.352-964.066L1499.352-964.066z
		 M1463.087-1038.25h31.084v27.603c0,2.861,2.321,5.177,5.181,5.177s5.181-2.315,5.181-5.177v-37.953h-41.445
		c-2.861,0-5.182,2.314-5.182,5.175C1457.905-1040.565,1460.226-1038.25,1463.087-1038.25L1463.087-1038.25 M1463.087-1038.25
		L1463.087-1038.25z"/>
</g>
<g>
	<path fill-rule="evenodd" clip-rule="evenodd" fill="#2B2C2C" d="M2019.889-960.175c17.997-10.671,29.968-29.968,29.968-51.946
		c0-33.313-26.65-59.937-59.937-59.937c-33.313,0-59.936,26.651-59.936,59.937c0,21.978,11.998,41.303,29.968,51.946
		c-36.631,12.634-62.618,47.274-62.618,87.914c0,4.009,2.654,6.663,6.663,6.663h173.174c4.008,0,6.662-2.654,6.662-6.663
		C2083.17-912.9,2056.52-948.204,2019.889-960.175L2019.889-960.175L2019.889-960.175z M1943.31-1012.149
		c0-25.987,20.651-46.639,46.639-46.639c25.986,0,46.638,20.652,46.638,46.639s-20.651,46.639-46.638,46.639
		C1963.934-965.51,1943.31-986.162,1943.31-1012.149L1943.31-1012.149L1943.31-1012.149z M1909.996-878.924
		c3.317-41.303,37.958-73.261,79.924-73.261c41.967,0,75.943,31.986,79.924,73.261H1909.996L1909.996-878.924L1909.996-878.924z"/>
</g>
<g>
	<path fill-rule="evenodd" clip-rule="evenodd" fill="#040000" d="M2371.008-925.998l-40.172-5.888l-17.924-36.43l-18.013,36.385
		l-40.184,5.792l29.035,28.375l-6.908,40.005l35.956-18.847l35.914,18.936l-6.813-40.023L2371.008-925.998L2371.008-925.998z
		 M2312.813-887.892l-22.683,11.891l4.357-25.239l-18.318-17.901l25.353-3.653l11.361-22.952l11.309,22.983l25.342,3.712
		l-18.362,17.856l4.3,25.248L2312.813-887.892L2312.813-887.892z"/>
	<path fill-rule="evenodd" clip-rule="evenodd" fill="#040000" d="M2280.618-957.501c3.849,2.027,7.569,4.352,11.08,6.927
		l5.909-8.053c-2.76-2.025-5.635-3.908-8.594-5.635c11.881-11.376,19.291-27.386,19.291-45.096
		c0-34.435-28.016-62.451-62.452-62.451c-34.436,0-62.451,28.017-62.451,62.451c0,17.386,7.144,33.133,18.647,44.467
		c-14.009,7.947-25.878,19.196-34.537,32.881c-9.9,15.649-15.133,33.91-15.133,52.221h9.988c0-32.908,18.318-63.109,47.887-78.287
		c10.106,7.037,22.378,11.169,35.599,11.169C2258.712-946.906,2270.674-950.813,2280.618-957.501L2280.618-957.501z
		 M2193.391-1009.357c0-28.927,23.534-52.463,52.463-52.463c28.928,0,52.463,23.536,52.463,52.463
		c0,28.93-23.534,52.465-52.463,52.465S2193.391-980.427,2193.391-1009.357L2193.391-1009.357z"/>
</g>
<text transform="matrix(1 0 0 1 291.2148 -798.0669)" font-family="'AdobeSongStd-Light-GBpc-EUC-H'" font-size="33">待收货</text>
<text transform="matrix(1 0 0 1 817.1963 -358.751)" font-family="'AdobeSongStd-Light-GBpc-EUC-H'" font-size="37.0627">待收货</text>
<text transform="matrix(1 0 0 1 569.7148 -798.0669)" font-family="'AdobeSongStd-Light-GBpc-EUC-H'" font-size="33">待发货</text>
<text transform="matrix(1 0 0 1 532.4756 -358.751)" font-family="'AdobeSongStd-Light-GBpc-EUC-H'" font-size="37.0627">待发货</text>
<text transform="matrix(1 0 0 1 847.7148 -798.0669)" font-family="'AdobeSongStd-Light-GBpc-EUC-H'" font-size="33">待付款</text>
<text transform="matrix(1 0 0 1 1139.7148 -798.0669)" font-family="'AdobeSongStd-Light-GBpc-EUC-H'" font-size="33">评价</text>
<text transform="matrix(1 0 0 1 1434.6172 -358.751)" font-family="'AdobeSongStd-Light-GBpc-EUC-H'" font-size="37.0627">评价</text>
<text transform="matrix(1 0 0 1 295.2305 -358.751)" font-family="'AdobeSongStd-Light-GBpc-EUC-H'" font-size="37.0627">首页</text>
<text transform="matrix(1 0 0 1 1391.2129 -798.0669)" font-family="'AdobeSongStd-Light-GBpc-EUC-H'" font-size="33">首页</text>
<text transform="matrix(1 0 0 1 1691.7148 -798.0669)" font-family="'AdobeSongStd-Light-GBpc-EUC-H'" font-size="33">退款</text>
<text transform="matrix(1 0 0 1 1969.7148 -798.0669)" font-family="'AdobeSongStd-Light-GBpc-EUC-H'" font-size="33">我</text>
<g>
	<path fill-rule="evenodd" clip-rule="evenodd" fill="#2B2C2C" d="M2029.968-515.743c15.681-9.297,26.11-26.11,26.11-45.259
		c0-29.024-23.22-52.22-52.221-52.22c-29.024,0-52.22,23.22-52.22,52.22c0,19.149,10.454,35.986,26.11,45.259
		c-31.915,11.007-54.557,41.188-54.557,76.595c0,3.493,2.313,5.805,5.805,5.805h150.879c3.493,0,5.805-2.313,5.805-5.805
		C2085.102-474.555,2061.883-505.313,2029.968-515.743L2029.968-515.743L2029.968-515.743z M1963.248-561.026
		c0-22.641,17.992-40.634,40.634-40.634s40.634,17.993,40.634,40.634c0,22.642-17.992,40.634-40.634,40.634
		C1981.217-520.392,1963.248-538.384,1963.248-561.026L1963.248-561.026L1963.248-561.026z M1934.223-444.952
		c2.891-35.985,33.071-63.83,69.635-63.83c36.564,0,66.166,27.868,69.635,63.83H1934.223L1934.223-444.952L1934.223-444.952z"/>
</g>
<text transform="matrix(1 0 0 1 1981.0381 -364.2949)" font-family="'AdobeSongStd-Light-GBpc-EUC-H'" font-size="37.0627">我</text>
<text transform="matrix(1 0 0 1 2172.2148 -798.0669)" font-family="'AdobeSongStd-Light-GBpc-EUC-H'" font-size="33">我的关注</text>
<text transform="matrix(1 0 0 1 2181.0713 -364.8076)" font-family="'AdobeSongStd-Light-GBpc-EUC-H'" font-size="37.0627">我的关注</text>
<g>
	<path fill-rule="evenodd" clip-rule="evenodd" fill="#2C2C2C" d="M1681.547-1009.929h19.16c1.002,3.229,2.229,5.68,5.346,10.913
		l16.488,28.3l16.496-28.189c3.117-5.234,4.455-8.018,5.346-11.024h19.271c-1.447,1.894-5.9,8.24-7.904,11.47l-15.377,24.514h6.236
		c5.012,0,8.025-0.222,11.701-0.891v12.703c-3.787-0.668-6.801-0.891-11.701-0.891h-13.037l-3.674,5.79v3.229h16.488
		c5.012,0,7.803-0.223,11.701-0.891v12.703c-3.787-0.668-6.801-0.891-11.701-0.891h-16.488v7.58c0,6.348,0.223,9.799,0.891,14.261
		h-16.488c0.557-4.351,0.891-8.805,0.891-14.261v-7.58h-16.822c-5.012,0-7.914,0.223-11.701,0.891v-12.703
		c3.898,0.668,6.578,0.891,11.701,0.891h16.822v-3.34l-3.676-5.679h-12.924c-5.123,0-7.914,0.222-11.701,0.891v-12.703
		c3.676,0.669,6.578,0.891,11.701,0.891h6.234l-15.484-24.514C1686.111-1003.47,1683.217-1007.813,1681.547-1009.929
		L1681.547-1009.929z M1721.164-864.403c-30.662,0-58.127-13.426-77.057-34.624l12.574-9.791
		c15.996,17.483,38.926,28.507,64.482,28.507c48.32,0,87.494-39.173,87.494-87.494s-39.174-87.494-87.494-87.494
		c-39.42,0-72.666,26.105-83.596,61.954l13.203-13.936c2.816-2.966,7.311-3.038,10.039-0.159c2.721,2.88,2.648,7.621-0.168,10.587
		l-25.484,26.892c-1.965,2.076-4.74,2.641-7.166,1.87c-2.912,0.62-5.982-0.661-7.549-3.548l-17.801-32.73
		c-1.965-3.619-0.803-8.24,2.609-10.333c3.402-2.083,7.754-0.843,9.719,2.768l7.414,13.633
		c13.02-42.212,52.297-72.906,98.779-72.906c57.111,0,103.402,46.292,103.402,103.402S1778.275-864.403,1721.164-864.403
		L1721.164-864.403z"/>
</g>
<text transform="matrix(1 0 0 1 1700.9043 -364.8076)" font-family="'AdobeSongStd-Light-GBpc-EUC-H'" font-size="37.0627">退款</text>
<g>
	<path fill-rule="evenodd" clip-rule="evenodd" fill="#2B2C2C" d="M1704.007-559.069h16.344c0.853,2.755,1.899,4.844,4.557,9.308
		l14.063,24.138l14.071-24.042c2.659-4.464,3.799-6.838,4.56-9.404h16.437c-1.235,1.616-5.034,7.029-6.743,9.784l-13.114,20.907
		h5.319c4.273,0,6.846-0.189,9.979-0.759v10.834c-3.229-0.569-5.801-0.76-9.979-0.76h-11.119l-3.134,4.939v2.754h14.063
		c4.274,0,6.654-0.19,9.979-0.76v10.834c-3.229-0.57-5.801-0.759-9.979-0.759h-14.063v6.464c0,5.415,0.188,8.357,0.759,12.164
		h-14.063c0.474-3.71,0.762-7.51,0.762-12.164v-6.464h-14.35c-4.274,0-6.75,0.188-9.979,0.759v-10.834
		c3.323,0.57,5.608,0.76,9.979,0.76h14.35v-2.85l-3.137-4.843h-11.023c-4.369,0-6.751,0.191-9.979,0.76v-10.834
		c3.135,0.57,5.61,0.759,9.979,0.759h5.318l-13.207-20.907C1707.901-553.56,1705.432-557.263,1704.007-559.069L1704.007-559.069z
		 M1737.798-434.949c-26.151,0-49.578-11.451-65.723-29.531l10.725-8.35c13.643,14.912,33.199,24.313,54.998,24.313
		c41.212,0,74.624-33.41,74.624-74.625c0-41.213-33.412-74.624-74.624-74.624c-33.622,0-61.979,22.266-71.3,52.842l11.262-11.886
		c2.401-2.529,6.235-2.592,8.562-0.137c2.319,2.457,2.259,6.502-0.144,9.031l-21.736,22.936c-1.675,1.77-4.043,2.252-6.111,1.595
		c-2.482,0.528-5.102-0.564-6.438-3.027l-15.184-27.915c-1.675-3.087-0.684-7.029,2.227-8.813c2.901-1.779,6.614-0.721,8.287,2.36
		l6.324,11.628c11.106-36.003,44.605-62.181,84.251-62.181c48.711,0,88.192,39.482,88.192,88.19
		C1825.99-474.432,1786.509-434.949,1737.798-434.949L1737.798-434.949z"/>
</g>
<g>
	<polygon fill-rule="evenodd" clip-rule="evenodd" fill="#2B2C2C" points="904.196,-940.092 980.286,-940.092 980.286,-931.638 
		904.196,-931.638 904.196,-940.092 	"/>
	<path fill-rule="evenodd" clip-rule="evenodd" fill="#2B2C2C" d="M984.47-1045.772H807.012c-11.734,0-21.178,9.473-21.178,21.161
		v109.861c0,11.697,9.481,21.157,21.178,21.157H984.47c11.731,0,21.179-9.473,21.179-21.161v-109.861
		C1005.648-1036.312,996.167-1045.772,984.47-1045.772L984.47-1045.772z M997.194-914.712c0,6.996-5.64,12.665-12.695,12.665
		H806.982c-7.013,0-12.694-5.639-12.694-12.665v-59.215h202.906V-914.712L997.194-914.712z M997.194-1007.711H794.288v-16.942
		c0-6.996,5.64-12.665,12.694-12.665h177.522c7.007,0,12.693,5.639,12.693,12.665v16.942H997.194L997.194-1007.711z"/>
</g>
<text transform="matrix(1 0 0 1 1125.4902 -358.751)" font-family="'AdobeSongStd-Light-GBpc-EUC-H'" font-size="37.0627">待付款</text>
<g>
	<polygon fill-rule="evenodd" clip-rule="evenodd" fill="#2B2C2C" points="1186.712,-495.404 1252.319,-495.404 1252.319,-488.114 
		1186.712,-488.114 1186.712,-495.404 	"/>
	<path fill-rule="evenodd" clip-rule="evenodd" fill="#2B2C2C" d="M1255.926-586.525h-153.009c-10.118,0-18.261,8.168-18.261,18.246
		v94.726c0,10.085,8.176,18.242,18.261,18.242h153.009c10.115,0,18.262-8.168,18.262-18.246v-94.725
		C1274.188-578.368,1266.012-586.525,1255.926-586.525L1255.926-586.525z M1266.898-473.521c0,6.032-4.863,10.92-10.947,10.92
		h-153.06c-6.047,0-10.945-4.862-10.945-10.92v-51.057h174.952V-473.521L1266.898-473.521z M1266.898-553.707h-174.952v-14.608
		c0-6.032,4.862-10.92,10.945-10.92h153.064c6.042,0,10.945,4.862,10.945,10.92v14.608H1266.898L1266.898-553.707z"/>
</g>
<g>
	<path fill-rule="evenodd" clip-rule="evenodd" fill="#2B2C2C" d="M968.143-526.248c3.379,0,6.117-2.739,6.117-6.118v-45.112
		c0-15.899-12.935-28.834-28.834-28.834h-81.181c-15.899,0-28.834,12.935-28.834,28.834v2.553h-28.728
		c-7.619,0-14.714,3.417-19.465,9.374l-21.775,27.306c-4.795,6.014-7.437,13.561-7.437,21.252v58.84h16.524
		c0.696,14.785,12.942,26.6,27.896,26.6c14.955,0,27.2-11.814,27.896-26.6h5.087h6.649h48.443c0.697,14.785,12.942,26.6,27.897,26.6
		c14.959,0,27.208-11.822,27.897-26.614c15.497-0.463,27.961-13.212,27.961-28.819v-8.671c0-3.379-2.738-6.118-6.117-6.118
		s-6.118,2.739-6.118,6.118v8.671c0,9.152-7.446,16.598-16.599,16.598h-1.313c-4.256-9.997-14.178-17.023-25.711-17.023
		s-21.455,7.027-25.712,17.023h-45.043v-107.089c0-9.152,7.446-16.599,16.599-16.599h81.181c9.152,0,16.599,7.446,16.599,16.599
		v45.112C962.023-528.987,964.763-526.248,968.143-526.248L968.143-526.248z M802.428-443.79c-8.653,0-15.693-7.04-15.693-15.694
		s7.04-15.693,15.693-15.693s15.693,7.04,15.693,15.693S811.082-443.79,802.428-443.79L802.428-443.79z M828.14-470.389
		c-4.257-9.997-14.179-17.023-25.712-17.023c-11.532,0-21.455,7.026-25.711,17.023h-6.474v-46.604c0-4.931,1.692-9.769,4.767-13.623
		l21.774-27.306c2.417-3.029,6.024-4.767,9.899-4.767h28.728v92.3H828.14L828.14-470.389z M918.401-475.176
		c8.653,0,15.693,7.04,15.693,15.693s-7.04,15.694-15.693,15.694s-15.694-7.04-15.694-15.694S909.748-475.176,918.401-475.176
		L918.401-475.176z M819.983-559.497c-3.378,0-6.117,2.739-6.117,6.118v23.673h-23.674c-3.379,0-6.118,2.739-6.118,6.118
		c0,3.379,2.739,6.118,6.118,6.118h35.909v-35.909C826.102-556.757,823.362-559.497,819.983-559.497L819.983-559.497z"/>
</g>
<g>
	<path fill-rule="evenodd" clip-rule="evenodd" fill="#2B2C2C" d="M653.193-588.671H518.715c-7.755,0.002-14.043,6.285-14.05,14.04
		v112.691c0,6.951,5.793,12.603,12.912,12.603h136.746c7.123,0,12.913-5.652,12.913-12.603v-112.691
		C667.223-582.381,660.942-588.66,653.193-588.671L653.193-588.671z M655.619-574.631v23.784H615.07v-26.21h38.123
		c1.333,0,2.426,1.093,2.426,2.429V-574.631z M574.1-577.057h29.36v65.397l-12.844-5.12c-1.399-0.562-2.963-0.554-4.356,0.024
		l-12.164,4.992v-65.298L574.1-577.057z M516.278-574.631c0-1.34,1.089-2.429,2.439-2.429h43.769v26.217h-46.208v-23.791V-574.631z
		 M654.32-460.951H517.577c-0.767,0-1.299-0.522-1.299-0.997v-77.283h46.208v36.136c0.003,3.206,2.601,5.803,5.807,5.807
		c0.742,0,1.498-0.141,2.205-0.44l18.005-7.387l18.613,7.412c1.788,0.717,3.816,0.499,5.411-0.583s2.548-2.885,2.543-4.812v-36.136
		h40.549v77.293c0,0.471-0.533,0.993-1.299,0.993V-460.951z"/>
</g>
<g>
	<path fill-rule="evenodd" clip-rule="evenodd" fill="#040000" d="M427.207-501.571c-1.547,0-3.07-0.639-4.175-1.867l-84.047-94.535
		c-1.892-2.112-4.372-3.291-6.951-3.291l0,0c-2.604,0-5.084,1.179-6.95,3.291l-83.876,94.535c-2.038,2.309-5.6,2.505-7.884,0.467
		c-2.309-2.063-2.505-5.575-0.467-7.884l83.851-94.535c4.028-4.544,9.48-7.049,15.326-7.049l0,0c5.846,0,11.273,2.505,15.302,7.049
		l84.047,94.535c2.063,2.309,1.842,5.845-0.467,7.884C429.86-502.037,428.534-501.571,427.207-501.571L427.207-501.571
		 M399.085-512.206v55.9c0,6.165-5.01,11.175-11.175,11.175H365.56v-44.701c0-12.33-10.021-22.351-22.351-22.351h-22.35
		c-12.33,0-22.351,10.021-22.351,22.351v44.701h-22.375c-6.165,0-11.176-5.011-11.176-11.175v-55.9h-11.175v55.9
		c0,12.33,10.021,22.351,22.351,22.351h22.351h11.175v-11.175v-44.701c0-6.165,5.011-11.175,11.176-11.175h22.35
		c6.165,0,11.176,5.011,11.176,11.175v44.701v11.175h11.175h22.351c12.329,0,22.351-10.021,22.351-22.351v-55.9H399.085
		L399.085-512.206 M399.085-512.206L399.085-512.206z"/>
</g>
<g>
	<path fill-rule="evenodd" clip-rule="evenodd" fill="#040000" d="M61.513,38.688c-0.479,0-0.952-0.198-1.295-0.579L34.162,8.801
		c-0.587-0.655-1.356-1.021-2.155-1.021l0,0c-0.807,0-1.576,0.366-2.155,1.021L3.849,38.108c-0.632,0.716-1.736,0.777-2.444,0.146
		c-0.716-0.64-0.776-1.729-0.145-2.444L27.255,6.501c1.249-1.409,2.939-2.186,4.751-2.186l0,0c1.813,0,3.495,0.777,4.744,2.186
		L62.807,35.81c0.64,0.716,0.571,1.812-0.145,2.444C62.335,38.543,61.924,38.688,61.513,38.688L61.513,38.688 M52.794,35.391v17.33
		c0,1.911-1.553,3.465-3.464,3.465H42.4V42.327c0-3.822-3.106-6.929-6.929-6.929h-6.93c-3.822,0-6.929,3.106-6.929,6.929v13.858
		h-6.937c-1.911,0-3.464-1.554-3.464-3.465v-17.33H7.747v17.33c0,3.822,3.107,6.93,6.929,6.93h6.929h3.464v-3.465V42.327
		c0-1.911,1.554-3.465,3.465-3.465h6.929c1.911,0,3.465,1.554,3.465,3.465v13.858v3.465h3.464h6.93c3.822,0,6.929-3.107,6.929-6.93
		v-17.33H52.794L52.794,35.391 M52.794,35.391L52.794,35.391z"/>
</g>
<g>
	<g>
		<path fill="none" d="M2828.877-513.498c-7.45-26.488-31.357-45.742-60.076-45.742c-32.652,0-59.604,24.866-62.186,57.002h114.69"
			/>
		<path fill="none" d="M2821.306-502.238"/>
		<path fill="none" d="M2828.877-513.498"/>
		<path fill="none" d="M2805.109-605.896c0-20.22-16.068-36.288-36.287-36.288s-36.287,16.068-36.287,36.288
			c0,20.219,16.047,36.287,36.287,36.287C2789.041-569.608,2805.109-585.677,2805.109-605.896z"/>
		<path fill="#2C2C2C" d="M2836.153-524.316l-7.276,10.818"/>
		<line fill="#2C2C2C" x1="2821.306" y1="-502.238" x2="2814.332" y2="-491.871"/>
		<path fill="#2C2C2C" d="M2706.615-502.238c2.582-32.136,29.533-57.002,62.186-57.002c28.719,0,52.626,19.254,60.076,45.742
			l7.276-10.818c-8.11-19.364-24.189-34.654-44.036-41.141c14.004-8.303,23.317-23.316,23.317-40.417
			c0-25.919-20.736-46.634-46.634-46.634c-25.919,0-46.634,20.736-46.634,46.634c0,17.101,9.335,32.136,23.317,40.417
			c-28.502,9.83-48.721,36.782-48.721,68.401c0,3.12,2.064,5.185,5.185,5.185h112.384l6.974-10.367H2706.615z M2732.535-605.896
			c0-20.22,16.068-36.288,36.287-36.288s36.287,16.068,36.287,36.288c0,20.219-16.068,36.287-36.287,36.287
			C2748.582-569.608,2732.535-585.677,2732.535-605.896z"/>
	</g>
	<g>
		<path fill-rule="evenodd" clip-rule="evenodd" fill="#2C2C2C" d="M2814.332-492.214c0,0-36.999-20.028-36.999-47.299
			c0-10.433,10.389-18.905,20.689-18.905c7.813,0,13.823,4.885,16.266,11.818l0.044,0.022c0,0,0.022,0,0.044-0.022
			c2.442-6.911,8.452-11.818,16.266-11.818c10.301,0,20.689,8.473,20.689,18.905
			C2851.331-512.242,2814.332-492.214,2814.332-492.214L2814.332-492.214z"/>
	</g>
</g>
<g>
	<path fill-rule="evenodd" clip-rule="evenodd" fill="#2A2C2C" d="M2300.282-430.688c0,0-47.412-25.665-47.412-60.61
		c0-13.37,13.312-24.227,26.512-24.227c10.013,0,17.714,6.259,20.844,15.145l0.057,0.03c0,0,0.028,0,0.058-0.03
		c3.129-8.855,10.83-15.145,20.843-15.145c13.2,0,26.512,10.857,26.512,24.227C2347.694-456.352,2300.282-430.688,2300.282-430.688
		L2300.282-430.688z"/>
	<path fill="#2A2C2C" d="M2263.537-614.43c-29.673,0-53.385,23.735-53.385,53.384c0,19.574,10.686,36.785,26.691,46.266
		c-32.625,11.253-55.772,42.106-55.772,78.301c0,3.571,2.366,5.935,5.935,5.935h5.343v-11.868
		c2.955-36.786,33.81-65.251,71.188-65.251c4.836,0,9.555,0.481,14.112,1.393c1.235,0.248,2.46,0.529,3.672,0.84
		c0.007,0,0.012,0,0.019,0c4.841,0,8.886-4.004,8.886-8.848v-0.501c16.031-9.505,26.692-26.691,26.692-46.266
		C2316.918-590.717,2293.182-614.43,2263.537-614.43z M2280.26-522.961c-1.186,0.513-2.402,0.974-3.646,1.377
		c-4.096,1.331-8.482,2.05-13.055,2.05c-23.17,0-41.54-18.392-41.54-41.539c0-23.146,18.396-41.54,41.54-41.54
		c23.147,0,41.541,18.395,41.541,41.54C2305.1-543.886,2294.955-529.322,2280.26-522.961z"/>
</g>
<g>
	<path fill-rule="evenodd" clip-rule="evenodd" fill="#2C2C2C" d="M1442.18-454.511c-1.74,0-3.475-0.708-4.729-2.113
		c-16.465-18.44-43.096-18.617-43.647-18.617c-0.018,0-0.018,0-0.037,0c-3.476,0-6.312-2.805-6.336-6.28
		c-0.026-3.495,2.772-6.344,6.259-6.381c1.318-0.07,32.772-0.038,53.206,22.847c2.33,2.606,2.103,6.608-0.505,8.937
		C1445.188-455.042,1443.682-454.511,1442.18-454.511L1442.18-454.511z M1484.63-454.522c-1.537,0-3.082-0.557-4.304-1.69
		c-2.563-2.375-2.722-6.382-0.342-8.944c21.162-22.854,51.978-22.827,53.193-22.778c3.501,0.038,6.305,2.9,6.268,6.394
		c-0.039,3.477-2.863,6.268-6.331,6.268c-0.02,0-0.032,0-0.05,0l0,0c-0.525,0-26.619,0.17-43.794,18.717
		C1488.031-455.201,1486.326-454.522,1484.63-454.522L1484.63-454.522z M1473.47-486.718h-20.06c-0.64,0-1.26-0.095-1.849-0.281
		c-21.415-2.747-39.613-15.172-51.344-35.101c-13.618-23.142-16.738-53.129-7.756-74.62c0.969-2.311,3.211-3.837,5.717-3.887
		l1.905-0.019c12.061,0,23.321,2.278,33.569,6.786c7.405-13.541,15.862-23.814,25.188-30.602c0.495-0.43,1.058-0.79,1.685-1.056l0,0
		c1.955-0.848,4.229-0.664,6.02,0.499c0.312,0.204,0.601,0.431,0.867,0.686c9.351,6.861,17.573,16.983,25.018,30.808
		c10.451-4.722,21.974-7.114,34.349-7.114l1.937,0.019c2.507,0.052,4.746,1.577,5.717,3.887c8.982,21.498,5.867,51.483-7.762,74.625
		c-11.73,19.917-29.923,32.348-51.331,35.103C1474.738-486.82,1474.116-486.718,1473.47-486.718L1473.47-486.718z M1454.537-499.379
		h17.807c0.134-0.025,0.271-0.045,0.411-0.063c22.891-2.545,36.02-17.225,43.002-29.084c10.691-18.173,13.933-41.923,8.413-59.407
		c-11.521,0.374-22.079,3.197-31.417,8.411c-1.526,0.85-3.33,1.027-4.983,0.52c-1.658-0.52-3.031-1.702-3.797-3.266
		c-6.418-13.127-13.3-22.788-20.935-29.372c-7.64,6.571-14.673,16.3-20.953,28.999c-0.767,1.545-2.121,2.709-3.765,3.228
		c-1.646,0.525-3.421,0.349-4.939-0.475c-9.142-4.968-19.452-7.671-30.662-8.038c-5.521,17.483-2.28,41.236,8.411,59.4
		c6.983,11.859,20.106,26.532,42.989,29.084C1454.259-499.424,1454.398-499.404,1454.537-499.379L1454.537-499.379z
		 M1463.393-448.997c-3.494,0-6.329-2.829-6.329-6.33v-37.723c0-3.499,2.835-6.33,6.329-6.33c3.496,0,6.331,2.831,6.331,6.33v37.723
		C1469.717-451.826,1466.889-448.997,1463.393-448.997L1463.393-448.997z"/>
</g>
</svg>
